<svg width="88" height="88" viewBox="0 0 88 88" fill="none" xmlns="http://www.w3.org/2000/svg">
<path d="M88 16.5V71.5H5.5V60.5H0V11H77V16.5H88ZM66 16.5C66 17.2734 66.1432 17.9896 66.4297 18.6484C66.7161 19.3073 67.1029 19.8802 67.5898 20.3672C68.0768 20.8542 68.6641 21.2552 69.3516 21.5703C70.0391 21.8854 70.7552 22.0286 71.5 22V16.5H66ZM5.5 22C6.27344 22 6.98958 21.8568 7.64844 21.5703C8.30729 21.2839 8.88021 20.8971 9.36719 20.4102C9.85417 19.9232 10.2552 19.3359 10.5703 18.6484C10.8854 17.9609 11.0286 17.2448 11 16.5H5.5V22ZM5.5 44C7.01823 44 8.4362 44.2865 9.75391 44.8594C11.0716 45.4323 12.2461 46.2201 13.2773 47.2227C14.3086 48.2253 15.0964 49.3854 15.6406 50.7031C16.1849 52.0208 16.4714 53.4531 16.5 55H60.5C60.5 53.4818 60.7865 52.0638 61.3594 50.7461C61.9323 49.4284 62.7201 48.2539 63.7227 47.2227C64.7253 46.1914 65.8854 45.4036 67.2031 44.8594C68.5208 44.3151 69.9531 44.0286 71.5 44V27.5C69.9818 27.5 68.5638 27.2135 67.2461 26.6406C65.9284 26.0677 64.7539 25.2799 63.7227 24.2773C62.6914 23.2747 61.9036 22.1146 61.3594 20.7969C60.8151 19.4792 60.5286 18.0469 60.5 16.5H16.5C16.5 18.0182 16.2135 19.4362 15.6406 20.7539C15.0677 22.0716 14.2799 23.2461 13.2773 24.2773C12.2747 25.3086 11.1146 26.0964 9.79688 26.6406C8.47917 27.1849 7.04688 27.4714 5.5 27.5V44ZM71.5 49.5C70.7266 49.5 70.0104 49.6432 69.3516 49.9297C68.6927 50.2161 68.1198 50.6029 67.6328 51.0898C67.1458 51.5768 66.7448 52.1641 66.4297 52.8516C66.1146 53.5391 65.9714 54.2552 66 55H71.5V49.5ZM5.5 55H11C11 54.2266 10.8568 53.5104 10.5703 52.8516C10.2839 52.1927 9.89714 51.6198 9.41016 51.1328C8.92318 50.6458 8.33594 50.2448 7.64844 49.9297C6.96094 49.6146 6.24479 49.4714 5.5 49.5V55ZM82.5 22H77V60.5H11V66H82.5V22ZM19.25 38.5C18.5052 38.5 17.8607 38.2279 17.3164 37.6836C16.7721 37.1393 16.5 36.4948 16.5 35.75C16.5 35.0052 16.7721 34.3607 17.3164 33.8164C17.8607 33.2721 18.5052 33 19.25 33C19.9948 33 20.6393 33.2721 21.1836 33.8164C21.7279 34.3607 22 35.0052 22 35.75C22 36.4948 21.7279 37.1393 21.1836 37.6836C20.6393 38.2279 19.9948 38.5 19.25 38.5ZM57.75 38.5C57.0052 38.5 56.3607 38.2279 55.8164 37.6836C55.2721 37.1393 55 36.4948 55 35.75C55 35.0052 55.2721 34.3607 55.8164 33.8164C56.3607 33.2721 57.0052 33 57.75 33C58.4948 33 59.1393 33.2721 59.6836 33.8164C60.2279 34.3607 60.5 35.0052 60.5 35.75C60.5 36.4948 60.2279 37.1393 59.6836 37.6836C59.1393 38.2279 58.4948 38.5 57.75 38.5ZM38.5 49.5C36.9818 49.5 35.5638 49.2135 34.2461 48.6406C32.9284 48.0677 31.7539 47.2799 30.7227 46.2773C29.6914 45.2747 28.9036 44.1146 28.3594 42.7969C27.8151 41.4792 27.5286 40.0469 27.5 38.5V33C27.5 31.4818 27.7865 30.0638 28.3594 28.7461C28.9323 27.4284 29.7201 26.2539 30.7227 25.2227C31.7253 24.1914 32.8854 23.4036 34.2031 22.8594C35.5208 22.3151 36.9531 22.0286 38.5 22C40.0182 22 41.4362 22.2865 42.7539 22.8594C44.0716 23.4323 45.2461 24.2201 46.2773 25.2227C47.3086 26.2253 48.0964 27.3854 48.6406 28.7031C49.1849 30.0208 49.4714 31.4531 49.5 33V38.5C49.5 40.0182 49.2135 41.4362 48.6406 42.7539C48.0677 44.0716 47.2799 45.2461 46.2773 46.2773C45.2747 47.3086 44.1146 48.0964 42.7969 48.6406C41.4792 49.1849 40.0469 49.4714 38.5 49.5ZM33 38.5C33 39.2734 33.1432 39.9896 33.4297 40.6484C33.7161 41.3073 34.1029 41.8802 34.5898 42.3672C35.0768 42.8542 35.6641 43.2552 36.3516 43.5703C37.0391 43.8854 37.7552 44.0286 38.5 44C39.2734 44 39.9896 43.8568 40.6484 43.5703C41.3073 43.2839 41.8802 42.8971 42.3672 42.4102C42.8542 41.9232 43.2552 41.3359 43.5703 40.6484C43.8854 39.9609 44.0286 39.2448 44 38.5V33C44 32.2266 43.8568 31.5104 43.5703 30.8516C43.2839 30.1927 42.8971 29.6198 42.4102 29.1328C41.9232 28.6458 41.3359 28.2448 40.6484 27.9297C39.9609 27.6146 39.2448 27.4714 38.5 27.5C37.7266 27.5 37.0104 27.6432 36.3516 27.9297C35.6927 28.2161 35.1198 28.6029 34.6328 29.0898C34.1458 29.5768 33.7448 30.1641 33.4297 30.8516C33.1146 31.5391 32.9714 32.2552 33 33V38.5Z" fill="black"/>
</svg>
