<svg width="88" height="88" viewBox="0 0 88 88" fill="none" xmlns="http://www.w3.org/2000/svg">
<path d="M44.0001 11C52.1034 11 58.6667 17.5633 58.6667 25.6667C58.6667 33.77 52.1034 40.3333 44.0001 40.3333C35.8967 40.3333 29.3334 33.77 29.3334 25.6667C29.3334 17.5633 35.8967 11 44.0001 11ZM58.6667 49.6467C58.6667 53.5333 57.6401 62.59 50.6368 72.71L47.6667 55L51.1134 48.1067C48.8401 47.85 46.4567 47.6667 44.0001 47.6667C41.5434 47.6667 39.1601 47.85 36.8868 48.1067L40.3334 55L37.3634 72.71C30.3601 62.59 29.3334 53.5333 29.3334 49.6467C20.5701 52.2133 14.6667 56.8333 14.6667 62.3333V77H73.3334V62.3333C73.3334 56.8333 67.4667 52.2133 58.6667 49.6467Z" fill="black"/>
</svg>
