<svg width="88" height="88" viewBox="0 0 88 88" fill="none" xmlns="http://www.w3.org/2000/svg">
<g id="carbon:password">
<path id="Vector" d="M57.75 5.5C53.8852 5.49911 50.0738 6.40356 46.6214 8.14085C43.1691 9.87814 40.1716 12.4 37.8693 15.5043C35.567 18.6086 34.0239 22.209 33.3636 26.017C32.7033 29.8251 32.9442 33.7348 34.067 37.433L5.5 66V82.5H22L50.567 53.933C53.9713 54.9663 57.5582 55.2536 61.0835 54.7753C64.6088 54.2969 67.9896 53.0642 70.9954 51.1611C74.0012 49.258 76.5614 46.7293 78.5015 43.7473C80.4416 40.7653 81.7161 37.4 82.238 33.8809C82.7599 30.3618 82.517 26.7715 81.5259 23.3548C80.5347 19.938 78.8187 16.7751 76.4946 14.0815C74.1705 11.388 71.2931 9.22714 68.0583 7.74623C64.8236 6.26532 61.3076 5.49918 57.75 5.5ZM57.75 49.5C55.8567 49.499 53.9738 49.2191 52.162 48.6695L49.0078 47.7125L46.6785 50.0418L37.9308 58.7895L34.1385 55L30.25 58.8885L34.0423 62.6807L29.6808 67.0422L25.8885 63.25L22 67.1385L25.7923 70.9307L19.723 77H11V68.277L37.9555 41.3215L40.2875 38.9922L39.3305 35.838C38.1551 31.9632 38.2315 27.8165 39.5487 23.9876C40.866 20.1587 43.3571 16.8427 46.6676 14.5113C49.9782 12.1798 53.9396 10.9516 57.9884 11.0015C62.0372 11.0513 65.9673 12.3765 69.2195 14.7887C72.4717 17.2009 74.8804 20.5772 76.1031 24.4373C77.3257 28.2974 77.3 32.4448 76.0297 36.2895C74.7593 40.1342 72.3089 43.4804 69.0271 45.8521C65.7453 48.2239 61.7991 49.5003 57.75 49.5Z" fill="black"/>
<path id="Vector_2" d="M60.5 33C63.5376 33 66 30.5376 66 27.5C66 24.4624 63.5376 22 60.5 22C57.4624 22 55 24.4624 55 27.5C55 30.5376 57.4624 33 60.5 33Z" fill="black"/>
</g>
</svg>
