<svg width="88" height="88" viewBox="0 0 88 88" fill="none" xmlns="http://www.w3.org/2000/svg">
<g clip-path="url(#clip0_59_4)">
<path d="M44 88L33 71.5H38.5V60.5H49.5V71.5H55L44 88ZM82.5 5.5V49.5H5.5V5.5H82.5ZM88 0H0V55H88V0Z" fill="black"/>
<path d="M44 11C48.3761 11 52.5729 12.7384 55.6673 15.8327C58.7616 18.9271 60.5 23.1239 60.5 27.5C60.5 31.8761 58.7616 36.0729 55.6673 39.1673C52.5729 42.2616 48.3761 44 44 44H71.5V38.5H77V16.5H71.5V11H44ZM27.5 27.5C27.5 23.1239 29.2384 18.9271 32.3327 15.8327C35.4271 12.7384 39.6239 11 44 11H16.5V16.5H11V38.5H16.5V44H44C39.6239 44 35.4271 42.2616 32.3327 39.1673C29.2384 36.0729 27.5 31.8761 27.5 27.5Z" fill="black"/>
</g>
<defs>
<clipPath id="clip0_59_4">
<rect width="88" height="88" fill="white"/>
</clipPath>
</defs>
</svg>
