<svg width="475" height="383" viewBox="0 0 475 383" fill="none" xmlns="http://www.w3.org/2000/svg">
<g clip-path="url(#clip0_19_5)">
<path d="M270.599 338.831C267.314 334.232 262.868 330.866 257.278 329.607C252.404 328.508 247.392 328.695 242.437 328.734L179.786 329.217C174.421 329.258 169.276 333.907 169.525 339.478C169.773 345.003 174.035 349.784 179.786 349.74C198.139 349.599 216.491 349.457 234.843 349.315C239.17 349.282 243.499 349.204 247.826 349.218C248.798 349.221 249.765 349.273 250.736 349.284C250.971 349.286 251.141 349.284 251.261 349.279C251.291 349.288 251.316 349.297 251.355 349.307C251.862 349.447 252.381 349.542 252.891 349.674C252.712 349.68 253.221 349.997 253.476 350.105C253.511 350.174 253.586 350.297 253.711 350.486C253.886 350.814 254.402 351.807 254.423 351.776C255.199 353.737 255.839 355.75 256.339 357.8C257.531 362.319 257.793 363.264 257.965 367.505C258.182 372.861 262.529 378.021 268.226 377.766C273.599 377.526 278.719 373.25 278.487 367.505C278.095 357.824 276.396 346.949 270.599 338.831Z" fill="#E6E6E6"/>
<path d="M183.469 361.988C182.292 354.856 181.138 347.72 179.939 340.592C178.721 333.362 176.235 326.74 170.609 321.995C169.106 320.727 167.547 319.543 165.981 318.363C165.431 317.948 164.881 317.533 164.337 317.109C164.305 317.083 164.284 317.067 164.256 317.045C164.196 316.994 164.124 316.933 164.028 316.851C161.683 314.866 159.417 312.793 157.259 310.59C155.342 308.632 153.509 306.592 151.76 304.468C151.322 303.937 150.891 303.402 150.465 302.862C150.392 302.769 149.997 302.259 149.737 301.927C149.496 301.593 149.054 300.992 148.98 300.887C148.482 300.183 147.993 299.473 147.513 298.757C144.245 293.86 141.415 288.684 139.057 283.29C138.823 282.755 138.594 282.217 138.371 281.676C138.312 281.51 138.234 281.298 138.132 281.016C137.656 279.709 137.182 278.403 136.747 277.08C135.824 274.271 135.03 271.419 134.365 268.527C134.037 267.099 133.741 265.663 133.478 264.22C133.343 263.478 133.216 262.735 133.098 261.99C133.078 261.866 132.963 261.062 132.895 260.608C132.845 260.152 132.752 259.344 132.739 259.219C132.664 258.468 132.597 257.716 132.539 256.964C132.408 255.27 132.319 253.574 132.273 251.875C132.194 248.856 132.248 245.837 132.435 242.818C132.542 241.122 132.693 239.43 132.88 237.742C132.891 237.638 132.9 237.556 132.908 237.481C132.919 237.406 132.933 237.32 132.948 237.214C133.086 236.28 133.232 235.349 133.394 234.42C134.01 230.892 134.81 227.4 135.792 223.957C136.257 222.328 136.762 220.713 137.307 219.111C137.55 218.4 137.801 217.692 138.06 216.986C138.043 217.031 138.818 215.052 138.828 214.985C141.903 207.719 146.933 201.095 146.939 192.842C146.944 187.253 142.217 181.9 136.679 182.158C133.917 182.262 131.304 183.434 129.39 185.427C127.476 187.42 126.41 190.078 126.418 192.842C126.418 192.967 126.417 193.074 126.417 193.178C126.365 193.352 126.322 193.497 126.283 193.626C125.683 194.929 124.949 196.167 124.291 197.438C122.488 200.916 120.95 204.509 119.488 208.154C117.096 214.09 115.264 220.237 114.018 226.515C111.31 240.27 111.1 254.399 113.398 268.229C117.376 292.48 130.496 315.695 148.736 331.299C150.319 332.653 151.94 333.962 153.577 335.244C154.254 335.774 154.937 336.295 155.623 336.812C155.948 337.057 157.292 338.117 156.701 337.603C157.972 338.688 158.507 339.234 158.834 340.034C158.881 340.218 158.945 340.468 159.033 340.81C159.263 341.712 159.482 342.611 159.663 343.525C161.251 351.511 162.354 359.63 163.68 367.668C164.592 373.19 171.39 376.784 176.303 375.129C182.021 373.203 184.446 367.905 183.469 361.988Z" fill="#E6E6E6"/>
<path d="M271.637 382.7C267.327 382.711 263.19 381.013 260.131 377.977C257.073 374.941 255.343 370.816 255.322 366.506V354.8C243.067 356.172 201.104 355.854 189.075 353.922V366.038C189.043 370.344 187.31 374.463 184.254 377.496C181.197 380.53 177.066 382.232 172.76 382.232C168.454 382.232 164.323 380.53 161.267 377.496C158.211 374.463 156.477 370.344 156.445 366.038V342.249C140.153 333.198 126.572 319.962 117.102 303.909C107.632 287.856 102.618 269.566 102.575 250.928C102.575 218.969 117.058 189.156 142.31 169.134C158.729 156.071 178.677 148.215 199.593 146.575C202.432 146.353 205.288 146.24 208.083 146.24C217.929 146.24 262.35 147.761 273.495 150.968L298.909 125.748C299.282 125.373 299.759 125.117 300.279 125.013C300.799 124.91 301.338 124.963 301.827 125.167C302.319 125.363 302.742 125.704 303.037 126.144C303.333 126.584 303.489 127.104 303.484 127.634V131.644L308.433 126.742C308.806 126.366 309.282 126.11 309.802 126.006C310.321 125.902 310.859 125.956 311.348 126.16C311.841 126.356 312.264 126.697 312.56 127.137C312.856 127.578 313.012 128.097 313.008 128.628V173.436C325.76 184.933 335.479 199.399 341.304 215.551C347.13 231.703 348.881 249.042 346.403 266.033C343.925 283.024 337.294 299.141 327.098 312.956C316.902 326.771 303.456 337.857 287.952 345.233V366.506C287.93 370.816 286.201 374.941 283.142 377.977C280.084 381.013 275.946 382.711 271.637 382.7ZM256.605 353.346V366.506C256.637 370.472 258.235 374.264 261.05 377.057C263.866 379.85 267.671 381.417 271.637 381.417C275.602 381.417 279.407 379.85 282.223 377.057C285.039 374.264 286.637 370.472 286.669 366.506V344.423L287.035 344.249C304.432 335.993 319.201 323.076 329.702 306.934C343.082 286.334 348.647 261.625 345.389 237.278C342.131 212.931 330.264 190.555 311.938 174.199L311.725 174.008V128.628C311.73 128.352 311.65 128.082 311.496 127.853C311.342 127.624 311.122 127.448 310.864 127.348C310.609 127.239 310.326 127.209 310.054 127.263C309.781 127.318 309.532 127.453 309.337 127.652L302.201 134.72V127.634C302.206 127.358 302.126 127.088 301.972 126.859C301.818 126.63 301.598 126.454 301.341 126.354C301.085 126.245 300.802 126.216 300.529 126.27C300.256 126.325 300.006 126.461 299.811 126.66L273.854 152.419L273.485 152.303C263.124 149.06 218.003 147.523 208.083 147.523C205.322 147.523 202.499 147.634 199.694 147.854C179.032 149.474 159.326 157.235 143.107 170.139C118.164 189.917 103.858 219.363 103.858 250.928C103.901 269.401 108.888 287.526 118.303 303.42C127.718 319.314 141.217 332.397 157.397 341.31L157.728 341.494V366.038C157.761 370.003 159.359 373.795 162.175 376.587C164.99 379.38 168.795 380.946 172.76 380.946C176.725 380.946 180.53 379.38 183.346 376.587C186.161 373.795 187.759 370.003 187.792 366.038V352.386L188.552 352.529C199.362 354.563 244.879 354.884 255.88 353.441L256.605 353.346Z" fill="#E1D4BB"/>
<path d="M184.695 76.3964L113.676 97.7406C111.418 98.4222 109.522 99.9727 108.405 102.051C107.289 104.13 107.043 106.567 107.722 108.827C108.401 111.087 109.949 112.984 112.027 114.103C114.104 115.222 116.54 115.471 118.801 114.794L180.949 96.1116L182.252 95.7203C182.515 89.0109 184.335 82.4546 187.568 76.5696C187.162 76.387 186.729 76.2743 186.285 76.236C185.75 76.1842 185.209 76.2387 184.695 76.3964Z" fill="#C2993A"/>
<path d="M117.572 119.345C116.63 119.343 115.712 119.044 114.948 118.491C114.184 117.939 113.613 117.16 113.316 116.266L108.875 102.864C108.689 102.304 108.616 101.713 108.659 101.125C108.701 100.537 108.86 99.9635 109.124 99.4366C109.389 98.9098 109.755 98.4402 110.201 98.0547C110.647 97.6692 111.164 97.3754 111.724 97.19L169.526 78.0327C170.085 77.8472 170.676 77.7737 171.264 77.8165C171.852 77.8593 172.426 78.0175 172.953 78.282C173.479 78.5465 173.949 78.9123 174.334 79.3583C174.72 79.8043 175.014 80.3219 175.199 80.8815L179.64 94.2832C180.01 95.3855 179.936 96.5883 179.434 97.6369C178.932 98.6855 178.041 99.4976 176.951 99.901C176.898 99.9211 176.844 99.94 176.789 99.9577L118.989 119.114C118.532 119.267 118.054 119.344 117.572 119.345Z" fill="#2F2E41"/>
<path d="M225.822 52.5957C214.156 52.6002 202.949 57.1443 194.574 65.2662C186.199 73.388 181.313 84.4503 180.949 96.1115C180.937 96.5668 180.93 97.0286 180.93 97.4904C180.93 106.37 183.563 115.05 188.496 122.433C193.429 129.815 200.44 135.57 208.643 138.968C216.845 142.366 225.872 143.255 234.58 141.522C243.288 139.79 251.287 135.514 257.565 129.236C263.843 122.957 268.119 114.958 269.851 106.249C271.583 97.5402 270.694 88.5134 267.296 80.31C263.898 72.1065 258.145 65.0949 250.762 60.1618C243.38 55.2287 234.7 52.5957 225.822 52.5957ZM225.822 141.102C214.26 141.09 203.175 136.492 194.999 128.315C186.823 120.139 182.225 109.053 182.213 97.4904C182.213 96.894 182.226 96.3039 182.251 95.7203C182.599 87.1773 185.449 78.9249 190.449 71.9892C195.448 65.0535 202.376 59.7405 210.371 56.7108C218.365 53.6811 227.074 53.0684 235.414 54.9489C243.754 56.8294 251.358 61.1201 257.279 67.2875C263.2 73.4549 267.178 81.2269 268.718 89.6371C270.257 98.0473 269.291 106.725 265.939 114.59C262.587 122.455 256.997 129.162 249.865 133.876C242.732 138.59 234.371 141.103 225.822 141.102Z" fill="#E1D4BB"/>
<path d="M263.659 97.4906C263.659 107.526 259.672 117.151 252.577 124.247C245.481 131.344 235.857 135.33 225.822 135.33C215.787 135.33 206.163 131.344 199.067 124.247C191.971 117.151 187.985 107.526 187.985 97.4906C187.985 96.2912 188.042 95.1111 188.151 93.9439C189.063 84.2583 193.67 75.2961 201.015 68.918C208.361 62.54 217.88 59.2362 227.597 59.6926C237.314 60.149 246.482 64.3306 253.197 71.3691C259.912 78.4076 263.659 87.7622 263.659 97.4906Z" fill="#E6E6E6"/>
<path d="M237.089 100.005C236.172 98.7988 234.966 97.8436 233.582 97.2276C231.874 96.5081 230.111 95.9289 228.31 95.496V85.1959C231.079 85.6134 233.676 86.7975 235.807 88.6143L237.898 84.1569C236.695 83.0856 235.315 82.2326 233.819 81.6364C232.161 80.9649 230.42 80.5184 228.644 80.3088V75.0881H223.802V80.3601C221.932 80.5701 220.129 81.1757 218.511 82.1366C217.05 83.0015 215.82 84.2074 214.926 85.6512C214.073 87.0602 213.631 88.6797 213.65 90.3267C213.567 92.1115 214.084 93.8727 215.118 95.3292C216.071 96.5903 217.329 97.5879 218.774 98.2282C220.508 98.9689 222.302 99.5632 224.135 100.005V109.875C220.868 109.629 217.754 108.386 215.215 106.316L213.124 110.779C214.544 111.954 216.159 112.87 217.895 113.486C219.798 114.167 221.786 114.581 223.802 114.717V119.893H228.644V114.621C231.333 114.327 233.855 113.171 235.833 111.325C236.703 110.489 237.391 109.482 237.853 108.367C238.314 107.252 238.539 106.053 238.513 104.847C238.594 103.119 238.092 101.414 237.089 100.005ZM224.135 94.4057C222.956 94.048 221.859 93.4594 220.909 92.674C220.533 92.3392 220.235 91.9251 220.038 91.4616C219.841 90.9981 219.749 90.4966 219.768 89.9932C219.733 88.8509 220.153 87.7414 220.935 86.9083C221.802 86.0343 222.921 85.4534 224.135 85.2472V94.4057ZM231.35 108.054C230.532 108.893 229.466 109.448 228.31 109.638V101.146C229.415 101.443 230.449 101.96 231.35 102.666C231.691 102.958 231.963 103.323 232.143 103.733C232.324 104.144 232.41 104.591 232.395 105.039C232.44 106.14 232.066 107.217 231.35 108.054Z" fill="#C2993A"/>
<path d="M119.634 173.66C118.642 173.659 117.679 173.33 116.894 172.725C116.108 172.12 115.544 171.273 115.289 170.315L112.871 161.163C112.568 160.013 112.734 158.789 113.332 157.761C113.93 156.733 114.912 155.984 116.061 155.679L192.339 135.521C193.49 135.221 194.713 135.388 195.741 135.988C196.768 136.587 197.517 137.569 197.823 138.718L199.871 146.472L199.487 146.502C179.924 148.023 161.207 155.116 145.549 166.943L145.437 166.996L120.773 173.512C120.401 173.61 120.018 173.66 119.634 173.66Z" fill="#2F2E41"/>
<path d="M107.001 218.867C98.0528 217.545 89.4953 214.309 81.9113 209.38C78.154 206.94 74.6757 204.095 71.5388 200.896C68.4427 197.737 65.4807 194.148 63.9472 189.942C62.4717 186.051 62.5477 181.741 64.1596 177.904C65.7495 174.091 68.7865 171.064 72.6048 169.486C76.446 167.954 81.0869 167.79 84.8252 169.468C86.6066 170.249 88.1481 171.49 89.2914 173.063C89.8229 173.789 90.2165 174.606 90.4524 175.474C90.6713 176.26 90.6913 177.089 90.5103 177.885C90.2911 178.679 89.9046 179.418 89.3765 180.051C88.8485 180.684 88.1912 181.197 87.4488 181.555C85.8149 182.393 84.0445 182.933 82.2208 183.15C80.3866 183.4 77.7518 183.627 76.2772 182.155C75.9736 181.864 75.7349 181.512 75.5765 181.122C75.4657 180.823 75.4277 180.503 75.4659 180.187C75.4444 180.326 75.5549 179.884 75.5486 179.901C75.5253 179.967 75.4243 180.126 75.5678 179.881C75.6127 179.801 75.6626 179.723 75.7174 179.648C75.6686 179.711 75.5616 179.817 75.7527 179.636C75.9107 179.463 76.1137 179.338 76.3391 179.274C76.4278 179.248 76.5179 179.228 76.6069 179.203C76.8331 179.142 76.3814 179.207 76.6128 179.199C76.7021 179.196 76.7925 179.199 76.8815 179.195C77.1086 179.184 76.6576 179.133 76.8751 179.187C76.9596 179.209 77.0433 179.229 77.1265 179.256C77.3074 179.313 76.9984 179.123 77.121 179.265C77.2647 179.431 76.9702 179.103 77.1335 179.264C77.2147 179.344 77.2913 179.428 77.3628 179.517C77.646 179.797 78.0279 179.953 78.4258 179.953C78.8237 179.953 79.2056 179.797 79.4888 179.517C79.7623 179.231 79.9149 178.85 79.9149 178.454C79.9149 178.058 79.7623 177.677 79.4888 177.391C78.0065 175.553 75.0785 176.007 73.579 177.561C71.6666 179.541 72.4239 182.681 74.2841 184.409C76.3899 186.366 79.3725 186.502 82.0813 186.173C84.3706 185.954 86.6015 185.324 88.667 184.312C90.7193 183.304 92.3244 181.57 93.1715 179.445C93.554 178.312 93.6914 177.11 93.5746 175.919C93.4578 174.729 93.0895 173.576 92.4941 172.539C90.1024 168.042 85.1501 165.737 80.2551 165.337C77.7349 165.14 75.2006 165.444 72.7988 166.233C70.397 167.021 68.1754 168.278 66.2626 169.931C62.5757 173.251 60.3054 177.86 59.9212 182.806C59.4939 187.935 61.4835 192.915 64.3842 197.054C67.4209 201.259 71.0447 205.007 75.145 208.183C83.1609 214.583 92.5636 219.018 102.601 221.133C103.794 221.379 104.995 221.59 106.201 221.766C106.585 221.859 106.99 221.802 107.334 221.607C107.677 221.412 107.934 221.093 108.051 220.716C108.154 220.332 108.101 219.922 107.905 219.576C107.708 219.23 107.383 218.975 107.001 218.867Z" fill="#E1D4BB"/>
<path d="M250.259 153.528C237.149 153.343 224.081 153.676 211.054 154.526C206.601 154.817 202.749 156.391 202.749 159.036C202.749 161.248 206.571 163.839 211.054 163.546C224.074 162.696 237.143 162.363 250.259 162.548C260.952 162.699 260.946 153.679 250.259 153.528Z" fill="#CCCCCC"/>
<path d="M230.883 162.102C229.466 162.102 196.184 162.049 196.184 157.451C196.184 152.854 229.466 152.801 230.883 152.801C232.3 152.801 265.581 152.854 265.581 157.451C265.581 162.049 232.3 162.102 230.883 162.102ZM197.486 157.451C198.397 158.845 210.63 160.819 230.883 160.819C251.135 160.819 263.369 158.845 264.28 157.451C263.369 156.058 251.135 154.084 230.883 154.084C210.63 154.084 198.397 156.058 197.486 157.451Z" fill="#E1D4BB"/>
<path d="M336.476 282.965C343.844 282.76 353.013 282.504 360.077 277.344C362.181 275.744 363.909 273.704 365.141 271.366C366.373 269.028 367.079 266.449 367.209 263.809C367.353 259.734 365.881 256.176 363.063 253.795C359.373 250.677 353.986 249.946 348.18 251.652L354.195 207.689L349.779 207.084L342.708 258.768L346.395 257.076C350.67 255.115 356.539 254.117 360.186 257.199C361.081 258.005 361.779 259.006 362.224 260.126C362.67 261.245 362.851 262.452 362.755 263.652C362.647 265.617 362.117 267.535 361.201 269.277C360.285 271.018 359.005 272.542 357.448 273.744C351.951 277.76 344.642 278.278 336.352 278.509L336.476 282.965Z" fill="#E1D4BB"/>
<path d="M324.267 211.48H300.261V215.938H324.267V211.48Z" fill="#E1D4BB"/>
<path d="M130.496 194.162C129.428 194.158 128.395 193.774 127.584 193.079C126.773 192.384 126.236 191.422 126.069 190.366L124.604 181.015C124.421 179.838 124.712 178.638 125.413 177.676C126.114 176.714 127.168 176.07 128.344 175.884L206.283 163.671C207.459 163.488 208.659 163.779 209.621 164.48C210.583 165.182 211.227 166.236 211.412 167.411L212.878 176.764C213.061 177.94 212.77 179.141 212.069 180.102C211.367 181.064 210.313 181.709 209.138 181.894L131.199 194.107C130.966 194.143 130.732 194.162 130.496 194.162Z" fill="#2F2E41"/>
<path d="M98.2414 84.5655C116.305 84.5655 130.948 69.9211 130.948 51.8565C130.948 33.7918 116.305 19.1475 98.2414 19.1475C80.178 19.1475 65.5347 33.7918 65.5347 51.8565C65.5347 69.9211 80.178 84.5655 98.2414 84.5655Z" fill="#C2993A"/>
<path d="M116.759 60.3196C117.805 59.954 118.76 59.3687 119.56 58.6032C120.089 58.0575 120.493 57.4025 120.743 56.6843C120.993 55.9661 121.082 55.2019 121.006 54.4454C120.961 53.9061 120.793 53.3845 120.513 52.9212C120.234 52.4579 119.851 52.0655 119.395 51.7747C118.211 51.0467 116.647 51.0742 115.068 51.8063L114.886 39.0383L113.603 39.0566L113.817 54.0667L114.794 53.4263C115.926 52.685 117.552 52.1474 118.723 52.8673C119.012 53.0579 119.254 53.3127 119.429 53.6119C119.604 53.9111 119.707 54.2466 119.731 54.5923C119.785 55.1559 119.717 55.7246 119.532 56.2595C119.346 56.7945 119.048 57.2832 118.656 57.6924C117.266 59.072 115.208 59.5343 112.86 59.9571L113.087 61.2193C114.335 61.0297 115.564 60.7286 116.759 60.3196Z" fill="#2F2E41"/>
<path d="M128.093 38.1423L121.263 39.1768L121.455 40.4448L128.285 39.4104L128.093 38.1423Z" fill="#2F2E41"/>
<path d="M106.534 41.4067L99.7038 42.4412L99.8959 43.7092L106.726 42.6748L106.534 41.4067Z" fill="#2F2E41"/>
<path d="M119.855 193.59C118.679 193.587 117.531 193.227 116.565 192.556C115.599 191.885 114.86 190.936 114.446 189.835L91.8959 129.439C89.1397 122.032 89.434 113.834 92.7143 106.644C95.9946 99.4532 101.993 93.8577 109.393 91.0848L127.73 84.2376C128.439 83.971 129.193 83.8473 129.95 83.8736C130.707 83.8999 131.452 84.0756 132.14 84.3907C132.828 84.6977 133.447 85.1387 133.961 85.6877C134.476 86.2367 134.877 86.8829 135.139 87.5884L176.911 166.464C177.182 167.176 177.31 167.934 177.288 168.694C177.265 169.455 177.092 170.204 176.778 170.898C176.465 171.592 176.018 172.217 175.462 172.737C174.906 173.257 174.253 173.662 173.54 173.929L121.872 193.223C121.227 193.465 120.544 193.589 119.855 193.59Z" fill="#2F2E41"/>
<path d="M122.166 86.3149L163.613 141.744L135.568 86.8967C135.336 86.2568 134.981 85.6687 134.522 85.1661C134.063 84.6636 133.51 84.2564 132.893 83.9678C132.277 83.6791 131.61 83.5148 130.93 83.484C130.25 83.4533 129.571 83.5569 128.931 83.7887L122.166 86.3149Z" fill="#E6E6E6"/>
<path d="M187.793 128.41L113.789 123.643C112.622 123.568 111.482 123.263 110.433 122.748C109.384 122.232 108.447 121.514 107.675 120.636C106.904 119.758 106.313 118.737 105.936 117.63C105.559 116.524 105.403 115.354 105.478 114.187C105.554 113.021 105.858 111.88 106.373 110.831C106.889 109.782 107.607 108.845 108.485 108.074C109.363 107.302 110.384 106.711 111.49 106.334C112.597 105.957 113.767 105.801 114.933 105.876L188.937 110.643C189.483 110.678 190.017 110.821 190.508 111.062C191 111.304 191.438 111.64 191.8 112.051C192.161 112.462 192.438 112.941 192.615 113.459C192.791 113.977 192.864 114.525 192.829 115.071L192.221 124.518C192.149 125.621 191.643 126.651 190.813 127.381C189.982 128.111 188.896 128.481 187.793 128.41Z" fill="#C2993A"/>
<path d="M168.018 131.466C167.92 131.466 167.822 131.463 167.724 131.457L106.956 127.542C106.368 127.505 105.793 127.351 105.263 127.091C104.734 126.831 104.262 126.469 103.873 126.026C103.483 125.584 103.185 125.068 102.995 124.51C102.805 123.952 102.727 123.362 102.765 122.774L103.804 106.639C103.842 106.05 103.995 105.475 104.255 104.946C104.515 104.417 104.877 103.944 105.32 103.555C105.763 103.166 106.278 102.868 106.836 102.678C107.394 102.488 107.984 102.409 108.572 102.447L169.34 106.361C170.528 106.439 171.636 106.985 172.422 107.879C173.207 108.773 173.606 109.942 173.531 111.13L172.492 127.266C172.435 128.13 172.129 128.96 171.612 129.655C171.095 130.35 170.388 130.881 169.577 131.185C169.078 131.371 168.55 131.467 168.018 131.466Z" fill="#2F2E41"/>
<path d="M97.8664 30.1054C102.169 26.4046 108.078 29.7152 113.012 29.1357C117.733 28.5812 121.46 24.3464 122.413 19.8474C123.524 14.5985 120.799 9.33997 116.784 6.06742C112.386 2.48316 106.554 1.45421 101.027 2.11733C94.6923 2.87733 88.899 5.83034 83.7008 9.40215C78.6831 12.743 74.0689 16.6533 69.9501 21.055C66.2619 25.1287 63.137 29.9844 62.1391 35.466C61.2323 40.4478 61.9248 45.9682 64.8695 50.1884C66.431 52.3514 68.5236 54.0755 70.9454 55.1943C73.4705 56.4344 76.164 57.3208 78.6104 58.7229C82.3093 60.8427 85.9043 65.2383 84.7456 69.8125C84.4972 70.8117 84.007 71.7345 83.3181 72.4997C82.4904 73.4186 80.9974 72.2043 81.8272 71.283C83.2848 69.6649 83.2274 67.5068 82.4506 65.5748C81.527 63.3978 79.8913 61.5991 77.8118 60.4733C75.251 59.0092 72.4239 58.1054 69.7993 56.7717C67.2871 55.5534 65.1065 53.7462 63.443 51.5038C60.3017 47.1381 59.3621 41.4564 60.0745 36.2004C60.8455 30.5127 63.7676 25.3441 67.4307 21.0129C71.4172 16.2993 76.3141 12.3094 81.3166 8.725C86.6844 4.87891 92.6147 1.6273 99.1771 0.451243C104.866 -0.568213 111.031 0.0594283 116.006 3.15963C120.649 6.05347 124.21 11.0314 124.564 16.5939C124.691 19.1247 124.141 21.6438 122.972 23.8918C121.802 26.1397 120.055 28.0354 117.909 29.3838C115.708 30.7012 113.148 31.2942 110.592 31.0791C107.859 30.9041 105.123 30.0672 102.373 30.2995C101.128 30.3751 99.9423 30.8543 98.9945 31.6646C98.0544 32.4732 96.9341 30.9073 97.8664 30.1054Z" fill="#2F2E41"/>
<path d="M474.236 383H0.763582C0.561448 382.999 0.367797 382.919 0.225073 382.775C0.0823493 382.632 0.00219727 382.438 0.00219727 382.236C0.00219727 382.034 0.0823493 381.84 0.225073 381.697C0.367797 381.554 0.561448 381.473 0.763582 381.473H474.236C474.439 381.473 474.633 381.553 474.776 381.696C474.92 381.84 475 382.034 475 382.236C475 382.439 474.92 382.633 474.776 382.776C474.633 382.919 474.439 383 474.236 383Z" fill="#E1D4BB"/>
</g>
<defs>
<clipPath id="clip0_19_5">
<rect width="475" height="383" fill="white"/>
</clipPath>
</defs>
</svg>
