<svg width="88" height="88" viewBox="0 0 88 88" fill="none" xmlns="http://www.w3.org/2000/svg">
<g id="vaadin:money-withdraw" clip-path="url(#clip0_59_7)">
<path id="Vector" d="M44 0L55 16.5H49.5V27.5H38.5V16.5H33L44 0ZM82.5 38.5V82.5H5.5V38.5H82.5ZM88 33H0V88H88V33Z" fill="black"/>
<path id="Vector_2" d="M44 44C46.1668 44 48.3124 44.4268 50.3143 45.256C52.3161 46.0852 54.1351 47.3006 55.6673 48.8327C57.1994 50.3649 58.4148 52.1839 59.244 54.1857C60.0732 56.1876 60.5 58.3332 60.5 60.5C60.5 62.6668 60.0732 64.8124 59.244 66.8143C58.4148 68.8161 57.1994 70.6351 55.6673 72.1673C54.1351 73.6994 52.3161 74.9148 50.3143 75.744C48.3124 76.5732 46.1668 77 44 77H71.5V71.5H77V49.5H71.5V44H44ZM27.5 60.5C27.5 56.1239 29.2384 51.9271 32.3327 48.8327C35.4271 45.7384 39.6239 44 44 44H16.5V49.5H11V71.5H16.5V77H44C39.6239 77 35.4271 75.2616 32.3327 72.1673C29.2384 69.0729 27.5 64.8761 27.5 60.5Z" fill="black"/>
</g>
<defs>
<clipPath id="clip0_59_7">
<rect width="88" height="88" fill="white"/>
</clipPath>
</defs>
</svg>
