<svg width="33" height="33" viewBox="0 0 33 33" fill="none" xmlns="http://www.w3.org/2000/svg">
<path d="M28.875 28.8748L22.9034 22.9032M22.9034 22.9032C23.9249 21.8817 24.7352 20.669 25.288 19.3344C25.8408 17.9998 26.1253 16.5694 26.1253 15.1248C26.1253 13.6802 25.8408 12.2498 25.288 10.9152C24.7352 9.58055 23.9249 8.36789 22.9034 7.34642C21.8819 6.32495 20.6693 5.51467 19.3347 4.96186C18 4.40904 16.5696 4.12451 15.125 4.12451C13.6805 4.12451 12.25 4.40904 10.9154 4.96186C9.5808 5.51467 8.36813 6.32495 7.34666 7.34642C5.28371 9.40937 4.12476 12.2073 4.12476 15.1248C4.12476 18.0423 5.28371 20.8402 7.34666 22.9032C9.40962 24.9661 12.2076 26.1251 15.125 26.1251C18.0425 26.1251 20.8405 24.9661 22.9034 22.9032Z" stroke="white" stroke-width="2" stroke-linecap="round" stroke-linejoin="round"/>
</svg>
